Coordinates
version=1
nRows=29
nColumns=24
inDegrees=yes

Units are S.I. units (second, meters, Newtons, ...)
Angles are in degrees.

endheader
time	pelvis_tilt	pelvis_list	pelvis_rotation	pelvis_tx	pelvis_ty	pelvis_tz	hip_flexion_r	hip_adduction_r	hip_rotation_r	knee_angle_r	ankle_angle_r	subtalar_angle_r	mtp_angle_r	hip_flexion_l	hip_adduction_l	hip_rotation_l	knee_angle_l	ankle_angle_l	subtalar_angle_l	mtp_angle_l	lumbar_extension	lumbar_bending	lumbar_rotation
      0.41300000	     -0.73751658	     -0.27265640	      3.97953435	     -0.75177387	      0.89926849	      0.30359876	     30.20125259	      1.50411122	     -6.43264503	    -25.25651276	      5.06183700	      3.77337822	      0.43611583	    -15.89407238	      0.27655411	     -0.82409161	     -7.98347128	     15.72197360	      1.72321120	      1.18830583	     -8.23792390	     -0.65156247	     -8.84245862
      0.41716667	     -0.76102264	     -0.28521591	      4.15657729	     -0.74591759	      0.89802445	      0.30376474	     30.09152097	      1.59674662	     -6.16688236	    -25.17129819	      5.10291782	      3.66521869	      1.73584040	    -15.81033998	      0.12001460	     -0.93742067	     -8.92274618	     15.95770689	      2.14035416	      7.27713055	     -8.19058705	     -0.61618778	     -8.74717390
      0.42133333	     -0.82739695	     -0.27068779	      4.37396229	     -0.74007407	      0.89674939	      0.30385400	     30.03944517	      1.62793718	     -5.98076394	    -25.22170621	      5.23848577	      3.67378890	      1.72500368	    -15.65593244	     -0.00011906	     -0.83706765	     -9.91902410	     16.23140662	      2.40086171	      7.33953110	     -8.07661135	     -0.61564737	     -8.82781764
      0.42550000	     -0.88028650	     -0.28301883	      4.57332537	     -0.73422398	      0.89550470	      0.30402108	     29.97090978	      1.71128176	     -5.77627915	    -25.34131238	      5.30908652	      3.49578135	      1.71912170	    -15.45994370	     -0.16126823	     -0.86153437	    -11.03191532	     16.49269238	      2.80656088	      7.47472551	     -7.99835210	     -0.55732059	     -8.91366798
      0.42966667	     -0.92009723	     -0.30554684	      4.77099085	     -0.72834628	      0.89431255	      0.30422258	     29.87204269	      1.81535798	     -5.57710363	    -25.50499790	      5.38254507	      3.28917002	      1.72942926	    -15.24447016	     -0.33832646	     -0.87759665	    -12.21590880	     16.75627634	      3.21614044	      7.72719427	     -7.92239090	     -0.51379010	     -8.96815686
      0.43383333	     -1.01540876	     -0.31687362	      4.97265466	     -0.72249142	      0.89308744	      0.30443010	     29.83815972	      1.90181768	     -5.40473656	    -25.73975782	      5.37080423	      3.05112724	      1.74483366	    -14.93106830	     -0.48964939	     -0.79012179	    -13.47153411	     16.90808908	      3.40761916	      7.91919062	     -7.77464356	     -0.48972078	     -8.98587263
      0.43800000	     -1.09336518	     -0.34703906	      5.16353238	     -0.71662113	      0.89190300	      0.30468923	     29.78843562	      2.02141779	     -5.24000451	    -26.03912542	      5.36764289	      2.74014404	      1.77370030	    -14.58448385	     -0.67267404	     -0.78752363	    -14.82935726	     17.05649193	      3.71900039	      8.17898569	     -7.65338083	     -0.43692041	     -9.00933341
      0.44216667	     -1.16822332	     -0.38290710	      5.35189515	     -0.71075486	      0.89076495	      0.30497009	     29.73267191	      2.15159877	     -5.09344357	    -26.38056709	      5.36041776	      2.39412875	      1.81096944	    -14.20017216	     -0.85900187	     -0.74621611	    -16.26731236	     17.14971709	      3.95712013	      8.46693018	     -7.53444620	     -0.37520725	     -9.00550050
      0.44633333	     -1.19268259	     -0.45993962	      5.51487046	     -0.70483953	      0.88972866	      0.30533597	     29.61893845	      2.35258017	     -4.94194818	    -26.75289531	      5.33695838	      1.92655016	      2.42274695	    -13.83731967	     -1.10571256	     -0.81555201	    -17.75661287	     17.12376914	      4.23374225	     12.97318721	     -7.48221390	     -0.24719964	     -8.89621789
      0.45050000	     -1.29684023	     -0.48757826	      5.69235736	     -0.69899248	      0.88862906	      0.30565397	     29.61750176	      2.47317188	     -4.84206630	    -27.22013888	      5.36394992	      1.59264076	      2.42750912	    -13.33760357	     -1.26960860	     -0.71212871	    -19.34275393	     17.05999632	      4.32449488	     13.04741113	     -7.32321742	     -0.20930398	     -8.92115703
      0.45466667	     -1.38200019	     -0.54319792	      5.85137927	     -0.69313545	      0.88759786	      0.30603718	     29.59397361	      2.64336001	     -4.72435695	    -27.70540244	      5.38795656	      1.16171656	      2.44058606	    -12.80940049	     -1.46922754	     -0.66127134	    -21.01570482	     16.95627253	      4.45859385	     13.18076095	     -7.19344052	     -0.13437818	     -8.86776660
      0.45883333	     -1.42229694	     -0.64742371	      5.98907490	     -0.68724382	      0.88667646	      0.30648967	     29.51337289	      2.88773069	     -4.59632698	    -28.18733673	      5.41857256	      0.61972466	      2.73687583	    -12.28200819	     -1.73911088	     -0.70860913	    -22.76315574	     16.72414525	      4.62946490	     16.16180603	     -7.10829110	      0.02036214	     -8.73974641
      0.46300000	     -1.51055153	     -0.70073849	      6.13610333	     -0.68142712	      0.88572968	      0.30688956	     29.51897164	      3.04985271	     -4.52033470	    -28.76856490	      5.54477256	      0.25185378	      2.74256069	    -11.65621410	     -1.92185963	     -0.60534764	    -24.59136279	     16.44269278	      4.62362703	     16.22339411	     -6.97828926	      0.08933942	     -8.67453022
      0.46716667	     -1.58425560	     -0.78061742	      6.25903095	     -0.67560914	      0.88485120	      0.30733788	     29.51182476	      3.25675326	     -4.42216422	    -29.36120602	      5.68282659	     -0.18777188	      2.75087318	    -10.99624427	     -2.13734629	     -0.56326719	    -26.49471872	     16.07551873	      4.64790591	     16.34729555	     -6.85871422	      0.20007982	     -8.56478417
      0.47133333	     -1.63904979	     -0.87915985	      6.37239364	     -0.66979934	      0.88404846	      0.30780289	     29.48724241	      3.48636146	     -4.32944849	    -29.96859817	      5.86614098	     -0.62418609	      2.75991293	    -10.31282899	     -2.37416262	     -0.52995355	    -28.46357329	     15.62273177	      4.64628569	     16.52752864	     -6.76224208	      0.33393368	     -8.43254553
      0.47550000	     -1.68561710	     -0.98863774	      6.47448112	     -0.66400905	      0.88330417	      0.30827173	     29.45955903	      3.72844135	     -4.23813327	    -30.59311702	      6.09856508	     -1.04453557	      2.76633674	     -9.58948799	     -2.61970016	     -0.50007000	    -30.49899575	     15.07144632	      4.60438766	     16.75961212	     -6.67339254	      0.48592035	     -8.28213311
      0.47966667	     -1.71586319	     -1.11095652	      6.56562712	     -0.65823210	      0.88262865	      0.30874824	     29.41628111	      3.98721006	     -4.14760949	    -31.22568095	      6.37637094	     -1.43735922	      2.76743733	     -8.84302825	     -2.87735868	     -0.47373297	    -32.58612001	     14.43850810	      4.52859109	     17.03744093	     -6.60749898	      0.65733697	     -8.11385391
      0.48383333	     -1.72750023	     -1.24816037	      6.64614725	     -0.65247402	      0.88203278	      0.30922345	     29.34969180	      4.26301757	     -4.05920034	    -31.85185966	      6.69782803	     -1.80433696	      2.76087919	     -8.07606158	     -3.15190403	     -0.46061509	    -34.71646744	     13.71427205	      4.41509778	     17.34590139	     -6.55857730	      0.84937610	     -7.93162748
      0.48800000	     -1.72214477	     -1.39885992	      6.71557232	     -0.64673701	      0.88149869	      0.30968761	     29.26227997	      4.55407479	     -3.96785194	    -32.47159556	      7.05308280	     -2.15358692	      2.74108867	     -7.28996888	     -3.44231845	     -0.46280107	    -36.88659916	     12.90044109	      4.27679557	     17.70881515	     -6.53560167	      1.06798062	     -7.73516051
      0.49216667	     -1.59693591	     -1.63940809	      6.79005303	     -0.64094613	      0.88121566	      0.31020528	     28.99501561	      4.96767909	     -3.87400422	    -32.97106654	      7.39914683	     -2.60445739	      2.18796241	     -6.59578748	     -3.88156104	     -0.54443275	    -39.06577494	     11.97061731	      4.18022828	     22.74577665	     -6.65278731	      1.41763612	     -7.40169628
      0.49633333	     -1.58982211	     -1.76498735	      6.82497932	     -0.63525988	      0.88077447	      0.31064635	     28.90678588	      5.22811658	     -3.78131264	    -33.60548267	      7.89190140	     -2.76397957	      2.19308700	     -5.76085859	     -4.12599721	     -0.54034791	    -41.25442575	     10.97200789	      3.88219175	     22.78398410	     -6.62444780	      1.59738875	     -7.30975927
      0.50050000	     -1.51825400	     -1.94552965	      6.86708632	     -0.62957319	      0.88048296	      0.31108894	     28.71259824	      5.55367319	     -3.70427147	    -34.14851955	      8.35484013	     -2.98087788	      2.18546816	     -4.96223016	     -4.45308345	     -0.56030766	    -43.45607511	      9.95541943	      3.61891950	     22.82158704	     -6.67589471	      1.85900104	     -7.12300178
      0.50466667	     -1.42411448	     -2.15618268	      6.90278215	     -0.62389906	      0.88026598	      0.31154369	     28.47174041	      5.91750269	     -3.62358502	    -34.63412129	      8.80814543	     -3.20251271	      2.16485665	     -4.15683536	     -4.82919106	     -0.61518603	    -45.66561636	      8.88405908	      3.36399865	     22.85510971	     -6.75080209	      2.15905583	     -6.90284958
      0.50883333	     -1.29659970	     -2.36341050	      6.92845837	     -0.61824458	      0.88016521	      0.31197677	     28.16508094	      6.28092410	     -3.53968858	    -35.05925888	      9.32333710	     -3.38784914	      2.15036069	     -3.37730651	     -5.20449512	     -0.68092968	    -47.84199808	      7.79830889	      3.08833013	     22.86045706	     -6.87783093	      2.47239500	     -6.70433265
      0.51300000	     -1.18348060	     -2.61542129	      6.94641259	     -0.61261576	      0.88006112	      0.31243572	     27.86158556	      6.68689356	     -3.48609645	    -35.43171041	      9.71602570	     -3.58905460	      2.10360779	     -2.54651783	     -5.64741067	     -0.79041326	    -50.02990814	      6.72476575	      2.78816733	     22.84953979	     -6.96284763	      2.82149153	     -6.42130147
      0.51716667	     -1.04333943	     -2.86347064	      6.95676298	     -0.60701236	      0.88005961	      0.31288723	     27.49705620	      7.09393104	     -3.42132408	    -35.73956893	     10.16482521	     -3.75865162	      2.04639510	     -1.73939948	     -6.08902391	     -0.89912663	    -52.16802500	      5.65752542	      2.47235811	     22.79629964	     -7.09517838	      3.17783111	     -6.15413813
      0.52133333	     -0.89618258	     -3.11666353	      6.96052071	     -0.60143601	      0.88012881	      0.31334197	     27.09777030	      7.50517235	     -3.36408558	    -35.98501785	     10.60223173	     -3.89132753	      1.98011650	     -0.92627393	     -6.54374959	     -1.02293985	    -54.26603474	      4.60007413	      2.12459758	     22.68878218	     -7.23252968	      3.54054276	     -5.88082854
      0.52550000	     -0.68777390	     -3.40236489	      6.96067454	     -0.59585843	      0.88034188	      0.31380373	     26.59135326	      7.95940674	     -3.31557719	    -36.13826943	     11.09028181	     -3.97841062	      0.81716181	     -0.17576192	     -7.05653148	     -1.16801826	    -56.31261337	      3.66456866	      1.90253565	     20.52793747	     -7.45916910	      3.94279271	     -5.49709965
      0.52966667	     -0.58927669	     -3.61998776	      6.95051547	     -0.59037432	      0.88044983	      0.31424780	     26.20295565	      8.32284616	     -3.24373617	    -36.30304811	     11.55812268	     -4.03764373	      0.82389540	      0.70529469	     -7.45761311	     -1.27993304	    -58.30166530	      2.68422932	      1.44301378	     20.44652565	     -7.54134960	      4.23983369	     -5.34892542
